<?xml version="1.0" encoding="utf-8"?>
<!-- Generator: Adobe Illustrator 21.0.2, SVG Export Plug-In . SVG Version: 6.00 Build 0)  -->
<svg version="1.1" id="Layer_1" xmlns="http://www.w3.org/2000/svg" xmlns:xlink="http://www.w3.org/1999/xlink" x="0px" y="0px"
	 viewBox="0 0 1150 34" enable-background="new 0 0 1150 34" xml:space="preserve">
<path fill="#FFFFFF" d="M854.3-203c-14.4,0-14.4,14-28.7,14s-14.4-14-28.7-14s-14.4,14-28.7,14c-14.4,0-14.4-14-28.8-14
	c-14.4,0-14.4,14-28.7,14s-14.4-14-28.7-14s-14.4,14-28.7,14s-14.4-14-28.7-14s-14.4,14-28.7,14s-14.4-14-28.8-14
	c-14.4,0-14.4,14-28.7,14c-14.4,0-14.4-14-28.8-14c-14.4,0-14.4,14-28.7,14c-14.4,0-14.4-14-28.7-14s-14.4,14-28.7,14
	c-14.4,0-14.4-14-28.7-14c-14.4,0-14.4,14-28.7,14c-14.4,0-14.4-14-28.8-14c-14.4,0-14.4,14-28.7,14s-14.4-14-28.7-14
	s-14.4,14-28.7,14c-14.4,0-14.4-14-28.7-14c-14.4,0-14.4,14-28.8,14c-14.4,0-14.4-14-28.8-14c-14.4,0-14.4,14-28.8,14
	s-14.4-14-28.8-14c-14.4,0-14.4,14-28.8,14s-14.4-14-28.8-14s-14.4,14-28.8,14S6.2-203-8.2-203c-14.4,0-14.4,14-28.7,14
	c-14.4,0-14.4-14-28.8-14s-14.4,14-28.8,14c-14.4,0-14.4-14-28.8-14s-14.4,14-28.8,14c-14.4,0-14.4-14-28.8-14s-14.4,14-28.8,14
	c-14.4,0-14.4-14-28.8-14s-14.4,14-28.8,14v20H883v-20C868.6-189,868.6-203,854.3-203z"/>
<path fill="#FFFFFF" d="M2004.3-203c-14.4,0-14.4,14-28.7,14s-14.4-14-28.7-14s-14.4,14-28.7,14c-14.4,0-14.4-14-28.8-14
	c-14.4,0-14.4,14-28.7,14c-14.4,0-14.4-14-28.7-14s-14.4,14-28.7,14s-14.4-14-28.7-14s-14.4,14-28.7,14s-14.4-14-28.8-14
	c-14.4,0-14.4,14-28.7,14c-14.4,0-14.4-14-28.8-14c-14.4,0-14.4,14-28.7,14c-14.4,0-14.4-14-28.7-14c-14.4,0-14.4,14-28.7,14
	c-14.4,0-14.4-14-28.7-14c-14.4,0-14.4,14-28.7,14c-14.4,0-14.4-14-28.8-14c-14.4,0-14.4,14-28.7,14s-14.4-14-28.7-14
	s-14.4,14-28.7,14c-14.4,0-14.4-14-28.7-14c-14.4,0-14.4,14-28.8,14c-14.4,0-14.4-14-28.8-14c-14.4,0-14.4,14-28.8,14
	s-14.4-14-28.8-14c-14.4,0-14.4,14-28.8,14s-14.4-14-28.8-14s-14.4,14-28.8,14c-14.4,0-14.4-14-28.8-14c-14.4,0-14.4,14-28.7,14
	c-14.4,0-14.4-14-28.8-14s-14.4,14-28.8,14c-14.4,0-14.4-14-28.8-14c-14.4,0-14.4,14-28.8,14c-14.4,0-14.4-14-28.8-14
	s-14.4,14-28.8,14c-14.4,0-14.4-14-28.8-14c-14.4,0-14.4,14-28.8,14v20h1150v-20C2018.6-189,2018.6-203,2004.3-203z"/>
<path fill="#FFFFFF" d="M3154.3-203c-14.4,0-14.4,14-28.7,14s-14.4-14-28.7-14s-14.4,14-28.7,14c-14.4,0-14.4-14-28.8-14
	c-14.4,0-14.4,14-28.7,14s-14.4-14-28.7-14s-14.4,14-28.7,14s-14.4-14-28.7-14s-14.4,14-28.7,14s-14.4-14-28.8-14
	c-14.4,0-14.4,14-28.7,14c-14.4,0-14.4-14-28.8-14c-14.4,0-14.4,14-28.7,14c-14.4,0-14.4-14-28.7-14c-14.4,0-14.4,14-28.7,14
	c-14.4,0-14.4-14-28.7-14c-14.4,0-14.4,14-28.7,14c-14.4,0-14.4-14-28.8-14c-14.4,0-14.4,14-28.7,14s-14.4-14-28.7-14
	s-14.4,14-28.7,14s-14.4-14-28.7-14c-14.4,0-14.4,14-28.8,14c-14.4,0-14.4-14-28.8-14c-14.4,0-14.4,14-28.8,14s-14.4-14-28.8-14
	c-14.4,0-14.4,14-28.8,14s-14.4-14-28.8-14s-14.4,14-28.8,14s-14.4-14-28.8-14c-14.4,0-14.4,14-28.7,14c-14.4,0-14.4-14-28.8-14
	s-14.4,14-28.8,14c-14.4,0-14.4-14-28.8-14c-14.4,0-14.4,14-28.8,14s-14.4-14-28.8-14c-14.4,0-14.4,14-28.8,14
	c-14.4,0-14.4-14-28.8-14c-14.4,0-14.4,14-28.8,14v20h1150v-20C3168.6-189,3168.6-203,3154.3-203z"/>
<path fill="#FFFFFF" d="M4304.3-203c-14.4,0-14.4,14-28.7,14s-14.4-14-28.7-14s-14.4,14-28.7,14c-14.4,0-14.4-14-28.8-14
	c-14.4,0-14.4,14-28.7,14s-14.4-14-28.7-14s-14.4,14-28.7,14c-14.4,0-14.4-14-28.7-14s-14.4,14-28.7,14s-14.4-14-28.8-14
	c-14.4,0-14.4,14-28.7,14c-14.4,0-14.4-14-28.8-14c-14.4,0-14.4,14-28.7,14c-14.4,0-14.4-14-28.7-14c-14.4,0-14.4,14-28.7,14
	c-14.4,0-14.4-14-28.7-14c-14.4,0-14.4,14-28.7,14c-14.4,0-14.4-14-28.8-14c-14.4,0-14.4,14-28.7,14s-14.4-14-28.7-14
	s-14.4,14-28.7,14s-14.4-14-28.7-14c-14.4,0-14.4,14-28.8,14c-14.4,0-14.4-14-28.8-14c-14.4,0-14.4,14-28.8,14s-14.4-14-28.8-14
	c-14.4,0-14.4,14-28.8,14s-14.4-14-28.8-14s-14.4,14-28.8,14s-14.4-14-28.8-14c-14.4,0-14.4,14-28.7,14c-14.4,0-14.4-14-28.8-14
	s-14.4,14-28.8,14c-14.4,0-14.4-14-28.8-14c-14.4,0-14.4,14-28.8,14s-14.4-14-28.8-14c-14.4,0-14.4,14-28.8,14
	c-14.4,0-14.4-14-28.8-14c-14.4,0-14.4,14-28.8,14v20h1150v-20C4318.6-189,4318.6-203,4304.3-203z"/>
</svg>
