<?xml version="1.0" encoding="utf-8"?>
<!-- Generator: Adobe Illustrator 21.0.2, SVG Export Plug-In . SVG Version: 6.00 Build 0)  -->
<svg version="1.1" id="Layer_2_copy" xmlns="http://www.w3.org/2000/svg" xmlns:xlink="http://www.w3.org/1999/xlink" x="0px"
	 y="0px" viewBox="0 0 1150 34" enable-background="new 0 0 1150 34" xml:space="preserve">
<path fill="#FFFFFF" d="M1059.8,0c-14.6,0-14.6,14-29.2,14c-14.6,0-14.6-14-29.2-14c-14.6,0-14.6,14-29.2,14
	c-14.6,0-14.6-14-29.2-14c-14.6,0-14.6,14-29.2,14S899.4,0,884.8,0c-14.6,0-14.6,14-29.2,14C841,14,841,0,826.4,0
	c-14.6,0-14.6,14-29.2,14c-14.6,0-14.6-14-29.2-14c-14.6,0-14.6,14-29.2,14c-14.6,0-14.6-14-29.2-14c-14.6,0-14.6,14-29.2,14
	C666,14,666,0,651.4,0s-14.6,14-29.2,14c-14.6,0-14.6-14-29.2-14c-14.6,0-14.6,14-29.2,14c-14.6,0-14.6-14-29.2-14
	c-14.6,0-14.6,14-29.2,14C491,14,491,0,476.4,0s-14.6,14-29.2,14C432.6,14,432.6,0,418,0c-14.6,0-14.6,14-29.2,14
	c-14.6,0-14.6-14-29.2-14c-14.6,0-14.6,14-29.2,14c-14.6,0-14.6-14-29.2-14c-14.6,0-14.6,14-29.2,14S257.6,0,243,0
	c-14.6,0-14.6,14-29.2,14c-14.6,0-14.6-14-29.2-14C170,0,170,14,155.4,14c-14.6,0-14.6-14-29.2-14s-14.6,14-29.2,14
	C82.5,14,82.5,0,67.9,0S53.3,14,38.7,14S24.1,0,9.5,0S-5,14-19.6,14C-34.2,14-34.2,0-48.8,0S-63.4,14-78,14v20h1167V14
	C1074.4,14,1074.4,0,1059.8,0z"/>
<path fill="#FFFFFF" d="M1643.3,0c-14.6,0-14.6,14-29.2,14S1599.6,0,1585,0c-14.6,0-14.6,14-29.2,14c-14.6,0-14.6-14-29.2-14
	c-14.6,0-14.6,14-29.2,14s-14.6-14-29.2-14s-14.6,14-29.2,14c-14.6,0-14.6-14-29.2-14c-14.6,0-14.6,14-29.2,14s-14.6-14-29.2-14
	c-14.6,0-14.6,14-29.2,14c-14.6,0-14.6-14-29.2-14c-14.6,0-14.6,14-29.2,14c-14.6,0-14.6-14-29.2-14s-14.6,14-29.2,14
	c-14.6,0-14.6-14-29.2-14c-14.6,0-14.6,14-29.2,14c-14.6,0-14.6-14-29.2-14c-14.6,0-14.6,14-29.2,14s-14.6-14-29.2-14
	c-14.6,0-14.6,14-29.2,14c-14.6,0-14.6-14-29.2-14c-14.6,0-14.6,14-29.2,14c-14.6,0-14.6-14-29.2-14c-14.6,0-14.6,14-29.2,14
	c-14.6,0-14.6-14-29.2-14c-14.6,0-14.6,14-29.2,14c-14.6,0-14.6-14-29.2-14c-14.6,0-14.6,14-29.2,14c-14.6,0-14.6-14-29.2-14
	c-14.6,0-14.6,14-29.2,14c-14.6,0-14.6-14-29.2-14c-14.6,0-14.6,14-29.2,14C666,14,666,0,651.4,0s-14.6,14-29.2,14
	C607.6,14,607.6,0,593,0c-14.6,0-14.6,14-29.2,14c-14.6,0-14.6-14-29.2-14s-14.6,14-29.2,14v20h1167V14C1657.9,14,1657.9,0,1643.3,0
	z"/>
<path fill="#FFFFFF" d="M7.3,0C-7.3,0-7.3,14-21.8,14S-36.4,0-51,0s-14.6,14-29.2,14c-14.6,0-14.6-14-29.2-14
	C-124,0-124,14-138.5,14c-14.6,0-14.6-14-29.2-14s-14.6,14-29.2,14c-14.6,0-14.6-14-29.2-14c-14.6,0-14.6,14-29.2,14
	s-14.6-14-29.2-14C-299,0-299,14-313.6,14c-14.6,0-14.6-14-29.2-14c-14.6,0-14.6,14-29.2,14c-14.6,0-14.6-14-29.2-14
	c-14.6,0-14.6,14-29.2,14c-14.6,0-14.6-14-29.2-14C-474,0-474,14-488.6,14c-14.6,0-14.6-14-29.2-14c-14.6,0-14.6,14-29.2,14
	c-14.6,0-14.6-14-29.2-14s-14.6,14-29.2,14s-14.6-14-29.2-14c-14.6,0-14.6,14-29.2,14c-14.6,0-14.6-14-29.2-14
	c-14.6,0-14.6,14-29.2,14c-14.6,0-14.6-14-29.2-14c-14.6,0-14.6,14-29.2,14c-14.6,0-14.6-14-29.2-14c-14.6,0-14.6,14-29.2,14
	c-14.6,0-14.6-14-29.2-14c-14.6,0-14.6,14-29.2,14c-14.6,0-14.6-14-29.2-14c-14.6,0-14.6,14-29.2,14C-970,14-970,0-984.6,0
	s-14.6,14-29.2,14c-14.6,0-14.6-14-29.2-14c-14.6,0-14.6,14-29.2,14c-14.6,0-14.6-14-29.2-14c-14.6,0-14.6,14-29.2,14v20h1167V14
	C21.9,14,21.9,0,7.3,0z"/>
</svg>
