<?xml version="1.0" encoding="utf-8"?>
<!-- Generator: Adobe Illustrator 21.0.2, SVG Export Plug-In . SVG Version: 6.00 Build 0)  -->
<svg version="1.1" id="Layer_1" xmlns="http://www.w3.org/2000/svg" xmlns:xlink="http://www.w3.org/1999/xlink" x="0px" y="0px"
	 viewBox="0 0 1150 34" enable-background="new 0 0 1150 34" xml:space="preserve">
<path fill="#FFFFFF" d="M1121.3,0c-14.4,0-14.4,14-28.7,14s-14.4-14-28.7-14s-14.4,14-28.7,14c-14.4,0-14.4-14-28.8-14
	c-14.4,0-14.4,14-28.7,14S963.1,0,948.8,0S934.4,14,920,14S905.6,0,891.3,0s-14.4,14-28.7,14S848.1,0,833.8,0
	c-14.4,0-14.4,14-28.7,14c-14.4,0-14.4-14-28.8-14c-14.4,0-14.4,14-28.7,14c-14.4,0-14.4-14-28.7-14S704.4,14,690,14
	c-14.4,0-14.4-14-28.7-14c-14.4,0-14.4,14-28.7,14c-14.4,0-14.4-14-28.8-14c-14.4,0-14.4,14-28.7,14S560.7,0,546.3,0
	s-14.4,14-28.7,14c-14.4,0-14.4-14-28.7-14c-14.4,0-14.4,14-28.8,14c-14.4,0-14.4-14-28.8-14c-14.4,0-14.4,14-28.8,14
	S388.2,0,373.8,0c-14.4,0-14.4,14-28.8,14S330.7,0,316.3,0s-14.4,14-28.8,14S273.2,0,258.8,0c-14.4,0-14.4,14-28.7,14
	c-14.4,0-14.4-14-28.8-14s-14.4,14-28.8,14c-14.4,0-14.4-14-28.8-14S129.4,14,115,14S100.7,0,86.3,0S71.9,14,57.5,14
	C43.1,14,43.1,0,28.8,0S14.4,14,0,14v20h1150V14C1135.6,14,1135.6,0,1121.3,0z"/>
</svg>
